<svg width="415" height="499" viewBox="0 0 415 499" fill="none" xmlns="http://www.w3.org/2000/svg">
<path d="M164.5 314L405.045 388.385C410.072 389.94 413.5 394.588 413.5 399.85V487C413.5 493.627 408.127 499 401.5 499H164.5V314Z" fill="#A0A0A2"/>
<path d="M164.5 314L8.8221 379.9C4.38364 381.779 1.5 386.131 1.5 390.951V487C1.5 493.627 6.87258 499 13.5 499H164.5V314Z" fill="#636466"/>
<path d="M164.5 156L405.788 236.268C410.691 237.899 414 242.487 414 247.655V341.738C414 349.816 406.18 355.587 398.461 353.204L164.5 281V156Z" fill="#A0A0A2"/>
<path d="M164.5 156L7.13253 225.835C2.79567 227.759 0 232.059 0 236.803V332.852C0 341.454 8.78374 347.262 16.6987 343.894L164.5 281V156Z" fill="#636466"/>
<path d="M165 0L406.288 80.2681C411.191 81.8994 414.5 86.4868 414.5 91.6546V185.738C414.5 193.816 406.68 199.587 398.961 197.204L165 125V0Z" fill="#A0A0A2"/>
<path d="M165 -1.52588e-05L7.63253 69.8348C3.29567 71.7594 0.5 76.0586 0.5 80.8033V176.852C0.5 185.454 9.28374 191.262 17.1987 187.894L165 125V-1.52588e-05Z" fill="#636466"/>
<circle cx="79" cy="256.5" r="27" fill="#011455" stroke="white" stroke-width="15"/>
<path d="M163.5 399.209C163.5 391.222 170.634 385.124 178.523 386.367L242.99 396.524C250.769 397.75 256.5 404.454 256.5 412.329V499H163.5V399.209Z" fill="#011455"/>
<path d="M247.5 499V398.998C247.5 396.078 245.398 393.582 242.521 393.086L174.84 381.404C173.618 381.193 172.5 382.134 172.5 383.375V499" stroke="white" stroke-width="18" stroke-miterlimit="3.99393"/>
<circle cx="198" cy="443.5" r="7.5" fill="white"/>
</svg>
